PathFileType	4	(X/Y/Z)	50_2_16_p0_0-278.trc
DataRate	CameraRate	NumFrames	NumMarkers	Units	OrigDataRate	OrigDataStartFrame	OrigNumFrames
40.0	40.0	6	27	m	40.0	69	279
Frame#	Time	RHip			RKnee			RAnkle			RBigToe			RSmallToe			RHeel			LHip			LKnee			LAnkle			LBigToe			LSmallToe			LHeel			Neck			Head			Nose			RShoulder			RElbow			RWrist			RThumb			RIndex			RPinky			LShoulder			LElbow			LWrist			LThumb			LIndex			LPinky			
		X1	Y1	Z1	X2	Y2	Z2	X3	Y3	Z3	X4	Y4	Z4	X5	Y5	Z5	X6	Y6	Z6	X7	Y7	Z7	X8	Y8	Z8	X9	Y9	Z9	X10	Y10	Z10	X11	Y11	Z11	X12	Y12	Z12	X13	Y13	Z13	X14	Y14	Z14	X15	Y15	Z15	X16	Y16	Z16	X17	Y17	Z17	X18	Y18	Z18	X19	Y19	Z19	X20	Y20	Z20	X21	Y21	Z21	X22	Y22	Z22	X23	Y23	Z23	X24	Y24	Z24	X25	Y25	Z25	X26	Y26	Z26	X27	Y27	Z27	
69	1.725	0.31936517901295647	0.7238358774990612	0.4880673262651846	0.3092304990665234	0.8556079258934906	0.9287115362759082	0.3153193579964068	0.9860011719831092	1.3485308379966137	0.2540872464835716	0.8446345005884308	1.4118946929070466	0.3238527115290904	0.8402607215383368	1.4108689947191662	0.3004687607881992	1.0696856931002938	1.4003010841110697	0.10963881988913404	0.7562959598353447	0.49682402103005874	0.13356762230606153	0.791050898366346	0.9148011216196273	0.1105444134959783	1.013876059767647	1.3520396347774961	0.09841147769360854	0.8471954186758532	1.39641449414082	0.04117519318828337	0.8824850392788354	1.3945662035391853	0.12434969633856266	1.062948434470664	1.4020510733130889	0.20174070559637908	0.5976358842644678	0.006742578205126988	0.21539402801678537	0.4846057434264113	-0.21703796814436524	0.1955076734645434	0.41280900328595455	-0.0835802369765786	0.33974523142021307	0.5613642793642305	0.09422700898209022	0.42101001545259226	0.6798941270778955	0.3526358123261139	0.4344688604993656	0.7000970636327658	0.6125692218945843	0.36050623245031493	0.6865555875440286	0.7074438292915022	0.37113871055400727	0.7063421744682568	0.74973251070353	0.40610773814116646	0.7401800088839219	0.7493872409223604	0.062302336618933925	0.6388695350528407	0.08562465558102568	0.02602197726692968	0.7005103650212511	0.35697249109091883	0.020094132511678603	0.6848993965576189	0.6027271058149238	0.04197445997487686	0.7014507117135141	0.7058293115262	0.017161096403182096	0.697225763327086	0.7142419261996503	-0.019022871705417516	0.7369665830898474	0.7097388478996617
70	1.75	0.3152742610221859	0.7102203060766162	0.49186343663493126	0.31467209290621445	0.8589670307737632	0.9380100177519902	0.31557140271885625	0.9854617630655373	1.3525795328136776	0.2541126998020134	0.8447861295782472	1.4119285416999157	0.32665147323449284	0.8229404594548144	1.405396198218545	0.3005282830951934	1.069736689730615	1.4005288908254772	0.1131671185421106	0.7421674797104495	0.5037404202648494	0.1337371192690627	0.7907841954919491	0.9188766726618073	0.1107556821837573	1.0137974301775818	1.3521406987957183	0.09846304122284659	0.8472759661049934	1.3963859733894521	0.044799292265991865	0.8979645595659487	1.3992653911752944	0.12495877867070104	1.0591136479065206	1.3964545469117806	0.20187113876156004	0.5973787516206556	0.0037068687895737687	0.21543736556770596	0.48485415305756807	-0.21683189290450539	0.19582854187165522	0.412597676802533	-0.08689496722199458	0.3395531202515317	0.5624604074424709	0.10143321737850967	0.4206705677943369	0.6804952491821614	0.3562529534891192	0.4339583448942771	0.7014553161725543	0.6165112094160329	0.3599654987080015	0.6870096265097353	0.7158596688928894	0.3707975476133056	0.707050166305311	0.7569198156709752	0.4010439702714045	0.7249888648326747	0.75197137905624	0.06257692132263994	0.6410909182426092	0.08901750947354961	0.026537221173957997	0.6993413150714788	0.3571510327060209	0.019466553042760563	0.6857583456016434	0.6063092561025399	0.041822605906686884	0.7022138495316732	0.7060177298163346	0.017214287643488722	0.6977086905669357	0.7143866096661359	-0.019108287891010267	0.7372083306332207	0.7098047913961039
71	1.775	0.32024839876890404	0.7261502990859454	0.4966032316843741	0.3148755565332762	0.8584278076548489	0.9378885468775618	0.315614627949524	0.9852001679664817	1.3525197084500602	0.25404830443829624	0.8443633419147528	1.4119835248099073	0.32648864585417003	0.8224859834980747	1.4055174995970827	0.3041551910224604	1.0497309213791988	1.3945795162072379	0.10881288092988527	0.757798838434189	0.5082691101828327	0.13370379203330288	0.790661371258771	0.9187746978204026	0.11107341000535678	1.013786347000383	1.3520488026333504	0.09852514963805171	0.8472899183919259	1.396351903237498	0.04496761356535902	0.8979302797071427	1.3992505750783646	0.12589209064499518	1.060366620686604	1.3962435069681425	0.20155097751000597	0.5979445288279125	0.0070618042353799895	0.2155278076916647	0.48626172238135573	-0.2134337525315951	0.19583344842047673	0.4134148649968964	-0.08048456348751888	0.33955409219237537	0.5628037042600287	0.10196588845923672	0.42067496969852186	0.6807167683138494	0.3566485023535075	0.43120135651667124	0.7183449335557458	0.6214402135431605	0.3594328917630506	0.6879032877106727	0.7203481054617092	0.3745100906800396	0.7073295284757468	0.7570640293503301	0.40594084240962636	0.7396927645497692	0.7496160318920315	0.062208542452140414	0.6418754099617221	0.09233140096660766	0.026518154938739404	0.699746844105859	0.35710977846345665	0.01963195861594443	0.6861128993454482	0.6063399071550005	0.04148934507176895	0.7023123346963852	0.7060602966494476	0.013025532596333373	0.6961176045071455	0.7142450973151367	-0.018999226905875972	0.736956464907383	0.7099001799527016
72	1.8	0.32017343637957435	0.7263050247829479	0.49659256158631904	0.31869070454726395	0.8707523062435722	0.9357357180811673	0.3156679943097056	0.9853744917000448	1.3528437527578736	0.25796805009065094	0.8572799627440897	1.4173967829124157	0.33099623626263	0.8373631816770337	1.4107575047196894	0.30408207625953976	1.0493306356741832	1.3948204358546143	0.1084512734618207	0.7582239679304569	0.5045918351814086	0.13299558879880055	0.7917514571195653	0.9228791098614726	0.11725359812617901	1.0202129836519127	1.358239246316342	0.10553995981790426	0.8445797758545397	1.3955808136462893	0.04521323640492383	0.8962417647489596	1.3989493806767475	0.1248095001118768	1.0588196648930286	1.396523577630984	0.20155714433796906	0.598212747100667	0.007433427238748369	0.21478768019522218	0.4618800691866648	-0.20785189441974156	0.18863521783079934	0.4010363851235949	-0.07440924278669295	0.33553495092169827	0.5625037002027186	0.10564232065783649	0.42053626935041577	0.6811848892673825	0.3638258892008932	0.4338418829232626	0.705662085896166	0.6327264022478558	0.35866180410958454	0.6894887812816318	0.7360924765595803	0.3755780297299214	0.6949690812278791	0.763400503080342	0.40945831484133177	0.7260741312478579	0.7599337714659097	0.06209172761490424	0.6419061225866803	0.092725832990193	0.028116831396170782	0.716160975307278	0.36384302465101487	0.014772289266731409	0.7003218566650982	0.6074728265473917	0.03670989721420466	0.6992832145099368	0.7057758607141337	0.007516780441266657	0.6953576102379296	0.7177054852004313	-0.023643720064206005	0.7526264973028425	0.7118750757355544
73	1.825	0.3199865655035178	0.7275641470132086	0.5046286344022277	0.3182560516837287	0.8724418769538602	0.9447954616920599	0.31566596789994006	0.9855574539298323	1.3528616179216366	0.25797353502999515	0.8572961974697135	1.4175076319702862	0.3309282024643582	0.837219609216594	1.41080190843735	0.3005637222278086	1.0687497010561777	1.4049172685338853	0.10826552194560768	0.7597230303721288	0.5120048634148019	0.12904005144425518	0.7776961151484872	0.9207799493975938	0.11616186420731957	1.0211749544392106	1.3628736377173731	0.10628010722244478	0.8474644691144244	1.399892289423806	0.04210691152050517	0.8796759614312456	1.3940291060445575	0.12322905883817376	1.0582816469443654	1.4012706301459288	0.20139369737980103	0.5994637511144479	0.01425963097043643	0.21492288173542076	0.46293774683550376	-0.20453827150507561	0.18851232958007555	0.4003707240533767	-0.0744819805517396	0.335528098131151	0.5624500544715201	0.10589482269266384	0.4202239944269338	0.6821953388553649	0.367477398078159	0.43326685690824174	0.7067655427317541	0.6369027742446652	0.3587636007606517	0.6929082452756516	0.7445533930919739	0.3758633845106402	0.7109301243475012	0.7623243927997907	0.4144164550784372	0.7418498652307972	0.7620002632544743	0.062097188426804416	0.6424313908012689	0.09693743174866405	0.032573541008517164	0.7012119643941787	0.3638321330533035	0.014982145036913976	0.7003954197537327	0.6074782998879817	0.04032131911044487	0.7007623241317122	0.7059379444546461	0.006949494376127967	0.6927175783383299	0.7134021432793357	-0.023656629562256982	0.7526439741046135	0.7117866174961914
74	1.85	0.3164764211550769	0.7449377922354404	0.509364098160118	0.3178660461305816	0.8735954087696427	0.9417556558929008	0.31569034969183013	0.9855229057388688	1.3528941214261794	0.25796963935621997	0.8572114329296134	1.4174195488992116	0.3263944120412833	0.8220688397789845	1.4061158728320209	0.3004409831255651	1.0695227299308694	1.400932118472533	0.10821551087425352	0.7605650038467311	0.5121486340704754	0.12895260656725524	0.777420748109225	0.9206559740693545	0.11631550910540507	1.0212614567336116	1.3628286327376633	0.10311379188801532	0.8328690319099005	1.39518253888027	0.04217379761830115	0.8804413161487024	1.394224567626887	0.12356408717788801	1.0595079703829051	1.4014581873467076	0.20127753741923704	0.5992065605432372	0.010712443444894769	0.21485126782920067	0.4627465635124375	-0.2044177377750284	0.18849257040718906	0.4007473502755907	-0.07123924314192578	0.3354570156686823	0.5626029593748573	0.10576724517458705	0.41784797734003354	0.6968883621617287	0.3642860563369796	0.4337475056913548	0.7056330164094459	0.6330869316312133	0.3589496384094104	0.6926675778268446	0.7445057125639383	0.3797095686886281	0.6943881929103068	0.7636466048049634	0.4149373389678579	0.7409612175718374	0.761906529372865	0.06211238785179324	0.6424459073956117	0.09687961659719156	0.02830593323603693	0.7159881243134173	0.3638204569054199	0.010742247614302529	0.6992349083636077	0.6073030422599233	0.035962935077142454	0.6969016096975889	0.7014729965787277	0.0038601154834898713	0.6793366232139071	0.7117441422920544	-0.02384887382308204	0.7531958481024884	0.7116274879044326
